<?xml version="1.0" encoding="UTF-8"?>
<svg width="600" height="600" viewBox="0 0 600 600" fill="none" xmlns="http://www.w3.org/2000/svg">
  <circle cx="300" cy="300" r="290" stroke="white" stroke-width="2"/>
  <path d="M300 50
           C 420 50, 520 150, 520 300
           C 520 450, 420 550, 300 550
           C 180 550, 80 450, 80 300
           C 80 150, 180 50, 300 50
           Z" 
        fill="white"/>
  
  <!-- Decorative cutouts -->
  <path d="M300 100
           L 350 200 L 400 150
           L 380 250 L 450 300
           L 380 350 L 400 450
           L 350 400 L 300 500
           L 250 400 L 200 450
           L 220 350 L 150 300
           L 220 250 L 200 150
           L 250 200 Z" 
        fill="black"/>
  
  <!-- K pattern -->
  <path d="M250 200
           L 300 300 L 250 400
           M 300 300 L 350 400
           M 300 300 L 350 200" 
        stroke="black" 
        stroke-width="40"
        stroke-linecap="round"/>
</svg> 